/* XPM */
static char *b648520ba1b448a9f618ea7789995558pmguIyd8yjDUzovH[] = {
/* columns rows colors chars-per-pixel */
"32 32 66 1 ",
"  c #F6F5F5",
". c #F65718",
"X c #F14D17",
"o c #FE872E",
"O c #EF4513",
"+ c #FDFDFD",
"@ c #FB822D",
"# c #F9F8F9",
"$ c #FF9838",
"% c #F3EFEE",
"& c #EA3F11",
"* c #F9611B",
"= c #FC7D29",
"- c #C13C17",
"; c #D6350E",
": c #FA691E",
"> c #FB7223",
", c #FC7826",
"< c #FE8C30",
"1 c #FD9335",
"2 c #905429",
"3 c #FE8F32",
"4 c #E4390F",
"5 c #C64A1C",
"6 c #9E5C2D",
"7 c #BB270A",
"8 c #E38333",
"9 c #C0582B",
"0 c #AF6934",
"q c #D37932",
"w c #F0732B",
"e c #DE6324",
"r c #C8682D",
"t c #FA6E20",
"y c #6E311E",
"u c #854326",
"i c #F07C30",
"p c #E46F2B",
"a c #C6300D",
"s c #D34F19",
"d c #6C4327",
"f c #A83B1A",
"g c #9B411F",
"h c #EEB8A7",
"j c #D8591F",
"k c #AB5123",
"l c #F1D4C9",
"z c #CE674C",
"x c #D9957E",
"c c #EAC8BC",
"v c #7C4F2C",
"b c #F6782C",
"n c #F19472",
"m c #DFAE9F",
"M c #F5A378",
"N c #D67C63",
"B c #EE6424",
"V c #E4581A",
"C c #ED775B",
"Z c #F58C38",
"A c #C1806F",
"S c #D14111",
"D c #8A2D17",
"F c #8C6443",
"G c #C4793D",
"H c #F1E2DD",
/* pixels */
"+  +%##%+  %cmMnMMhlH#+%+  +%##%",
" ## #  #%cMiwprrrw=@ZMl  ## #  #",
" ## #  ln:*:>,=ir6r@@=qxl## #  #",
"+  +  hB.*:>,==@o@r6io06@h%+%##%",
"%##  n..*:>,=@oo<<3q66dpbwM%+  +",
"#   nX.*:t>biii88q02ddGo@bwM%## ",
"# #mOX.j9k222222260qZ868oir0m## ",
"%+lX&-ggkrpi@oZ31$$$$$q66v6rzc#+",
"+%C-f5V*>,=@o<31$$$$$86ydqbwen%%",
"#cffX.*:>,=@o<31$$$10d686q@wpec+",
" A-OX.*:>,=@o<31$$Gdv8$$q6@bpex#",
"H9&OX.*:>,=@o<318FvG$$$$122vukzl",
"hOOOX.*:t,=@o<<GF0Z$$$$10ddr9ugh",
"n&OOX.*:t,=@o80F81$$$$$0v82pwegx",
"C&OOX..*t>,=rF0Z11$$$$8v8<09pe9A",
"C&OOXX.*:>w6vqo<331$$12G3op2pesG",
"C4OOXX.*:euuw@o<<311$qvZ<oi2ejsN",
"C4&OOX.*5yk>==@o<3331203o@bk9jsN",
"n4&OOXXfy9t>,=@@o<<38d8o@bwkkj5x",
"h&&OOXDyj*:t>,=@@oo<02o@bwp9ks5m",
"lX4&&DyX..*:t>,==@@@vr=bwpe9g59H",
" C44uuOXX..*:t>,,,=rubbwpeekg5N%",
"+h4gu&OOXX..**:t>>wu9>tBejjgf5h#",
"%%Nu;&&OOXX..***::9dBBBejs5gfz%+",
"+#c544&&&OOXX...*Vy5BVVjs55g5c+%",
" # x;;44&&&OOOXX.guVVsss5--gx  #",
" ##%N;;;4444&&&O-y5ssSS---fA%# #",
"+  +HNa;;;;;;4;;yfSSS-----A% ##%",
"%##%+%x-aa;;;;ayD;aaaaa7-x% +  +",
"#  # # hza7aa7yD7777777zc ## ## ",
"#  # ###%hz-fyD77777-zm%+  # ## ",
"%##%+  +%+ lmAz99zNml%#+%##%+  +"
};
