/* XPM */
static char *_5452eed7ba54ba0cf6bbb48be6717fb3BEcbdC3rSYKOljr[] = {
/* columns rows colors chars-per-pixel */
"32 32 255 2 ",
"   c #F4CF95",
".  c #F6D199",
"X  c #F5CF9A",
"o  c #F3CD97",
"O  c #F4CE99",
"+  c #F2CC93",
"@  c #F5D7A0",
"#  c #F1C993",
"$  c #F0B986",
"%  c #F5AF72",
"&  c #FDAE6C",
"*  c #F2B079",
"=  c #F0B57E",
"-  c #F4D09B",
";  c #F5D49E",
":  c #F5D097",
">  c #F4CC96",
",  c #F5CF98",
"<  c #F5D099",
"1  c #F3AA6E",
"2  c #F4884B",
"3  c #E4773C",
"4  c #D96D33",
"5  c #CD6830",
"6  c #BF622A",
"7  c #DC6728",
"8  c #F97C29",
"9  c #F97F2F",
"0  c #F38032",
"q  c #F1924E",
"w  c #F2C68F",
"e  c #F7D69F",
"r  c #F6D09A",
"t  c #F5CE95",
"y  c #F5D19C",
"u  c #F39F66",
"i  c #F16931",
"p  c #F65D19",
"a  c #FC631C",
"s  c #FA6D23",
"d  c #FE7628",
"f  c #E6772E",
"g  c #B86832",
"h  c #A05A2A",
"j  c #D87630",
"k  c #FF882D",
"l  c #F37B2D",
"z  c #F77626",
"x  c #CF794B",
"c  c #D4A073",
"v  c #F7D29A",
"b  c #F0BF8A",
"n  c #EF702E",
"m  c #F65013",
"M  c #F5611C",
"N  c #F97324",
"B  c #FB842E",
"V  c #FB8B2F",
"C  c #EA812F",
"Z  c #A05F2C",
"A  c #A76630",
"S  c #F58B35",
"D  c #FF9434",
"F  c #99522A",
"G  c #FE8B42",
"H  c #F0581C",
"J  c #F6691E",
"K  c #F97927",
"L  c #FA812B",
"P  c #FA872E",
"I  c #F48732",
"U  c #FF8F32",
"Y  c #FF9B39",
"T  c #C67933",
"R  c #A1632F",
"E  c #B16E31",
"W  c #5A3B25",
"Q  c #ED732D",
"!  c #EC4D19",
"~  c #F05018",
"^  c #F95F1B",
"/  c #FF681C",
"(  c #FF7322",
")  c #FF7928",
"_  c #FF7D26",
"`  c #FF812B",
"'  c #ED8D37",
"]  c #DC8436",
"[  c #3A2A22",
"{  c #D27E35",
"}  c #EE8032",
"|  c #F2782E",
" . c #FBD9A1",
".. c #E84E1F",
"X. c #FF5B1A",
"o. c #EE5C1C",
"O. c #D15B22",
"+. c #B05725",
"@. c #A15026",
"#. c #904F25",
"$. c #8E5227",
"%. c #845029",
"&. c #87542B",
"*. c #94592C",
"=. c #F89039",
"-. c #DCBA8E",
";. c #F44413",
":. c #D04D1B",
">. c #9F4121",
",. c #8B3E21",
"<. c #9B4920",
"1. c #F89536",
"2. c #FFA13C",
"3. c #F3973A",
"4. c #FF9E3C",
"5. c #AD6734",
"6. c #774728",
"7. c #886349",
"8. c #C57143",
"9. c #F89D6B",
"0. c #D83B13",
"q. c #983D1D",
"w. c #D2531C",
"e. c #F4651C",
"r. c #FF842B",
"t. c #FB9033",
"y. c #F89738",
"u. c #FFA43E",
"i. c #F6993B",
"p. c #6D4024",
"a. c #E26020",
"s. c #E59960",
"d. c #FACB93",
"f. c #C6512C",
"g. c #973417",
"h. c #D94B17",
"j. c #F76E1F",
"k. c #FA7D29",
"l. c #F98E33",
"z. c #FA9335",
"x. c #7F532B",
"c. c #D5853A",
"v. c #E9C38D",
"b. c #FADDA5",
"n. c #A33418",
"m. c #EF4D19",
"M. c #EE551B",
"N. c #F15F1C",
"B. c #F87120",
"V. c #F79236",
"C. c #5C412E",
"Z. c #6B4628",
"A. c #D4873D",
"S. c #E15B1D",
"D. c #E19B67",
"F. c #F7DAA1",
"G. c #BE744F",
"H. c #E83D11",
"J. c #ED511A",
"K. c #936539",
"L. c #BB7533",
"P. c #FF9D3D",
"I. c #884926",
"U. c #BB5422",
"Y. c #E85621",
"T. c #EC4315",
"R. c #F3681D",
"E. c #725944",
"W. c #F59B3B",
"Q. c #4B2C1F",
"!. c #6C3924",
"~. c #E94617",
"^. c #EC4918",
"/. c #A16E45",
"(. c #FF9C38",
"). c #FD9939",
"_. c #DEA675",
"`. c #EFA36D",
"'. c #E64215",
"]. c #CE8237",
"[. c #B74B1D",
"{. c #BF9169",
"}. c #ED9967",
"|. c #ED4A18",
" X c #F25D1C",
".X c #CB7130",
"XX c #D16127",
"oX c #C8501D",
"OX c #D78F63",
"+X c #FF6D20",
"@X c #E46B28",
"#X c #C94C1A",
"$X c #E19262",
"%X c #D95A1F",
"&X c #583120",
"*X c #984C23",
"=X c #E78632",
"-X c #E8A675",
";X c #FC5319",
":X c #AE4F22",
">X c #F7D89D",
",X c #E76B3E",
"<X c #E2320C",
"1X c #F44A16",
"2X c #85381E",
"3X c #A7471F",
"4X c #CF4715",
"5X c #EB6A27",
"6X c #DF6424",
"7X c #C84214",
"8X c #AD3E1E",
"9X c #6F4639",
"0X c #D9996C",
"qX c #764138",
"wX c #DE3E16",
"eX c #F35919",
"rX c #E96222",
"tX c #B1350D",
"yX c #DD8555",
"uX c #EAD8A6",
"iX c #C45E3E",
"pX c #E34015",
"aX c #C5471C",
"sX c #CF3B13",
"dX c #D53610",
"fX c #DF4F17",
"gX c #B93E17",
"hX c #EBAF7C",
"jX c #CC300E",
"kX c #5C291B",
"lX c #D84412",
"zX c #C23D17",
"xX c #C33A12",
"cX c #CC3613",
"vX c #59261B",
"bX c #BF3210",
"nX c #B73213",
"mX c #CC4F2C",
"MX c #BE2609",
"NX c #CF3512",
"BX c #5F271D",
"VX c #C33110",
"CX c #BD2C0E",
"ZX c #BB2005",
"AX c #DA875B",
"SX c #C72B0B",
"DX c #922914",
"FX c #B51D05",
"GX c #BD3115",
"HX c #C75936",
"JX c #763226",
"KX c #9E220E",
"LX c #D88359",
"PX c #E3A174",
"IX c white",
/* pixels */
"  . X o O O o O + X @ @ # $ % & & * = # - ; : > , .     :   < - ",
"< . X O O , + o @ > 1 2 3 4 5 6 7 8 9 0 q 1 w e : r   t < : . . ",
"  . y , , o - , u i p a s d 8 f g h j k l z x c v e t t . : . y ",
"  < - O > @ b n m M s N z 8 9 B V C Z A S D g F G b ; + . : : - ",
", < y > @ * H m M J s N K L B P I U Y T R E W j l Q * ; , , : y ",
"  . X @ * ! ~ ^ / ( ) _ ` P V S ' ] T R W [ { U } | n %  .t : y ",
", , ; b ..m X.o.O.+.@.#.#.$.%.%.&.&.*.E ' ] Z =.U B 4 g -.e t y ",
"  : ; i ;.:.>.,.<.+.5 f C I ' ' 1.Y 2.2.3.4.T 5.g 6.7.5.8.t : ; ",
"t @ 9.0.q.>.w.e.( _ ` r.k U t.1.y.y.3.3.u.i.A [ p.j 0 K a.s.; y ",
"y d.f.g.h.X.^ e.j.z k.L P l.t.z.y.3.2.u.E W x.c.*.S } f 7 7 v.e ",
"b.c n.m.m M.N.J B.K k.B P V t.V.y.2.c.C.Z.A.u.2.E Z D 9 | S.D.b.",
"F.G.H.m.J.H M J B.K k.L P V l.D 1.K.C.L.u.2.3.3.P.%.*.I.I.U.3 ; ",
"w Y.T.! J.H M R.B.z 8 L B V D A.E.K.i.u.W.W.i.4.R Q.p.5 +.!.@.w ",
"= ~.^.! J.H N.R.j.z 8 8 k k /.7.c.(.).3.W.i.u.R Z.' *.0 | 7 ,._.",
"`.'.^.! J.M.N.e.j.N K r.j E./.t.D V.y.i.i.4.].Z.).D h 6 Q 7 [.{.",
"}.H.|.! J.M. Xe.R.B._ h C..XU V l.z.1.y.y.4.Z.{ D l..XF Q XXoXOX",
"}.H.^.! J.M.o.N.+Xj.p.p.l r.P V V t.z.V.(.L.Z.).S I f I.@XXX#X$X",
"`.H.~.|.! J.Y.a %X&X*X_ _ 8 B P V l.t.l.(.6.5.D I 0 l *XXXO.#XD.",
"= '.T.^.! ..X.[.Q.U.( B.K 8 L B P V V U =XW S P 0 | | @.U.O.#X-X",
"w ..H.^.^.;Xq.Q.%X/ R.j.N K 8 L B P P D Z $.U 0 l Q Q +.:Xw.oXb ",
">X,X<X~.1X2X&XM.p o.e.J j.N K 8 k.L L k p.j ` | Q @X@X:X3X4X5 ; ",
"F.}.<X;.,.!.~ J.M.H N.e.J j.N z K K ` 6 6.` z n 5X6Xa.3X3X7X$Xb.",
": # ^.8X9X^.|.! J.M.H  XM e.J j.B.N d !.XX( 5X5X6X%X%Xq.8X#Xb @ ",
"O >X0XqXwXT.~.^.! J.J.M.eX XM e.e.+X:X!.+XrXrXa.%Xw.:.q.tXyXe - ",
"y , uXiX<XpX'.'.~.^.|.! ~ M.eXeXp N.Q.w.N.S.S.w.:.aXaXg.f.o . ; ",
"; X  .$ sXdXwXpX'.~.~.~.^.|.m.J.X.2X2XeXfXfXh.4X7X7XgXn.hXF., ; ",
"O - O @ -XjXdX0.wXwXpXpX'.'.'.|.gXkXfXh.lX4X7XzXzXxXn.0X .+ < - ",
"o , O # @ -XcXjX0.0.0.0.0.0.wXsXvXzXlXsXsXxXxXzXbXnX0X>Xo t , O ",
"  . o + # >X= mXMXjXcXcXcXdXNXBXn.dXVXVXbXbXCXZXaXhX>X+ ,   : O ",
"  < - > o o v < AXzXZXMXSXnXBXDXjXCXCXMXZXFXGXx >  .+   <   : < ",
": < X O O O + t F.w $XHX>.JXKXZXFXZXMXGXf.AXb F.. , :   < . . < ",
", . - O O , o o > v b.F.v.-X$XLXLXOXPXb ; F.v o , v   t . : v y "
};
