/* XPM */
static char *_f5381b49302459bbb150a5df41ac51ebh3iIV0jJAYsr3bJ[] = {
/* columns rows colors chars-per-pixel */
"32 32 20 1 ",
"  c #E1E0DF",
". c #A19E9E",
"X c #D0C7C6",
"o c #BEAAAA",
"O c #833E3E",
"+ c #D8D3D2",
"@ c #969493",
"# c #FBFBFB",
"$ c gray97",
"% c #F3F3F3",
"& c #8E5050",
"* c #CABCBB",
"= c #965D5D",
"- c #AF8989",
"; c #877777",
": c #A47675",
"> c #826767",
", c #8D8585",
"< c #E9E9E8",
"1 c #752A2A",
/* pixels */
"#%%#%$$%# o-=OOOOO&=-*<%#%%#%$$%",
"%$$%$$$+-&=:o*XXX**.:&&-+$$%$$$$",
"%$$%#+:&:*           +o:O- $$$$$",
"#%$%-O:X                *=&o<#$%",
"%#+=&*                    oO: $#",
"#XO:+                      X=& $",
"+O-                         +=& ",
"=:                           +&:",
"O*                            oO",
"O+         ++++++++++         *O",
"O+        X&&&&&&&&&=+        *O",
"O+        XOoXXXXXX-O+        *O",
"O+        XOX      oO+        *O",
"O+        XOX      oO+        *O",
"O+        XOX      oO+        *O",
"O+        XOX      oO+        *O",
"O+        XOX      oO+        *O",
"O+        XOX     <oO+        *O",
"O+        XO.oooooo-O+        *O",
"O*       +o111111111O*+       -&",
"-&:.X   X=>>,@,@@@@;>&:   +*-=&*",
"$ o:==-o+@>;;>>>=>>>>;*Xo:&&:o %",
"$$$#<*-=&=;,,;;,;,;;;;=&=-X<$#$%",
"%$$%#$$%+o.;;;;;>>,;;-o %##%#%%#",
"#%%#%$$%#$%o,.....@,.%#%#%%#%$$%",
"%$$%$$$$$$$+@...o..@+$$$$$$%$$$$",
"%$$%#$$$%$$%.@..@@@@<$$$%$$$$$$$",
"#%%#%$$%#%%$o@...@,@<$$%#%%#%$$%",
"%$$%#%%#%$$<.,.@@@@@%%%#%$$%#%%#",
"$$$$%$$%$$$%.,@@@@@@ $$%$$$$%$$%",
"$$$$%$$%$$$%.@@@@@@,X$$%$$$$%$$%",
"%$$%#%%#%$#<o@@..... %%#%$$%#%%#"
};
