/* XPM */
static char *_0594404c2834c8e97554475516047eblprORPWnP9wR31H8[] = {
/* columns rows colors chars-per-pixel */
"32 32 26 1 ",
"  c #F4CF98",
". c #5D4F3A",
"X c #D9B988",
"o c #FAD49C",
"O c #F3CD96",
"+ c #EAC691",
"@ c #D5B584",
"# c #F5D199",
"$ c #F4CE97",
"% c #F8D29A",
"& c #3A3124",
"* c #E6C38E",
"= c #5F513C",
"- c #8D7859",
"; c #897454",
": c #A68D68",
"> c #716046",
", c #F2CC95",
"< c #7C694D",
"1 c #272118",
"2 c #B49970",
"3 c #534633",
"4 c #967F5D",
"5 c #C5A67A",
"6 c #9C8460",
"7 c #483D2D",
/* pixels */
"#O  #$$OO # $   $$O$##$    $$O  ",
" O $ ,$,O #$O$ $,$,$ #O$$ OOOO$ ",
" $   O$O$$#     O$O$ #$   O$O$$ ",
",++++****+++++++****++*+++****+$",
":3............................=*",
"-<X@X@@@@XX@@XXX@@@@XX@X@X@@@53X",
"-;o####  #%##### #  %% ######*=X",
"-;o #$$$$##  # #$$$$##$ #  $ *.X",
"-;% # $$$#o%%o%o%%%%o%  # #$ *.X",
"-;% #  $$O5::::::::::X#   #  *.X",
"-;o##  $ +3><<<<<<<<76% ###  *.X",
"-;%  $$O$+>X%##%## o-4%$  $$$*.X",
"-;%  ,O,$,5*$  $,O,%-4%   ,O$*.X",
"-;%  O$O$+=@    O$O%-4%   O$$*.X",
"-;%##$$O$+.@##  $$O%-4%   $$$*.X",
"-;o  $$$$+.@##  $$O%-4%   $$ *.X",
"-;% #$$$$+.@o%%%%##o-4%  #$$ *.X",
"-;o #$$$$+3622222222=4%##  $ *.X",
"-;o # $$$,->>>>>>>>>>5# #  $ *.X",
"-;o######o@:+oooo%#@:O#######*.X",
"->X@@@@@@@5&3<6::->&;X@@@@@@@53X",
":3........4>1111111&2>........=*",
"O++++++*++$61&&&&&&3+++++++++*+$",
" $   ,$O$ %5&&&&&&&<##$   OOOO$ ",
" $   O$OO$#*7&&&&&1:%#$   $$OO$ ",
"#$# #$$OO # >&&&&&&@##$   $$$O$ ",
" O#  $$$O #%61&&&13+##$   $$$O #",
"#$# #$$$$###X;;<;<2$##$    $$$ #",
" $# #$$$$##  %%%###$##$ #  $$$ #",
"#$# # $$$##  # #$$$ ##  # #$$$##",
"#$  # $$$## $# # $$ ##$$  # $$ #",
"#$###  $$#% $###  $ ##$ ###  $#%"
};
