/* XPM */
static char *_ae29920735a41c9dcf674c7914473cecl7w4pa9F5VEPso4[] = {
/* columns rows colors chars-per-pixel */
"32 32 9 1 ",
"  c #A78659",
". c #A28154",
"X c #9A7B4E",
"o c #AC8B5E",
"O c gray97",
"+ c #F5F5F4",
"@ c #DACEBF",
"# c #F3F1EF",
"$ c #F4F3F2",
/* pixels */
"O$$O@  .oo o . .XXX.ooo  X @$++#",
"$+++@  .o    . .XXX.ooo  . @O+++",
"$+++@  .o    . .XXXXooo  .o@O+++",
"O$$O@  .o    . .XXXX .o ..o@$++#",
"#+++@  .o .  .  .XXX.Xoo .o@O$$O",
"+++O@  .o  .. ooXXXX.Xoo X @+++$",
"+$$O@   o o X.oo.XXX..oo X.@+++#",
"#++$@   ooo X.ooXXXX..oo X.@O$$O",
"O$$O@   ooo X.  XXXX..   ..@+++#",
"$+++@   o o ..  .XX...XX ..@O+++",
"#+++@       .   XXX .XXX X @O+$+",
"O$$O@..  .o .    XXo.XXX.X.@+++#",
"#+++@ . ..o . ooo Xo XXXXXX@O$$O",
"+++O@.. . o X ooo .  XXXXXX@+++$",
"+$$O@.  . o X o o .  XXXX X@+++#",
"#++$@.  . oo.   o .  XXX. .@O$$O",
"O$$O@  o ooo.   o .  XXXo  @+++#",
"$+++@   oooo.  .   .XXXXo  @O+++",
"#+++@   ooooX... o..XXXXo  @O+$+",
"O$$O@  oooo XX...o....X.o  @+++#",
"#+++@ . ooo.XX ..o... X.o  @O$$O",
"+++O@o  oo.XX... o.   X.o  @+++$",
"+$$O@o .  XX. ..oo oo.X.o  @+++#",
"#++$@ .X  XX   ooo oo X... @O$$O",
"O$$O@.X.  X   .oo .oo XXXX @+++#",
"$+++@XXX. .o . oo.Xoo XXXX @O+++",
"#+++@XXXXo o . ooXX o .XXX @O$$+",
"O$$O@XX.Xo o    o..oo..X.X @$++#",
"#+++@XX.X  o o  o   o....X.@O$$O",
"++++@XXX.  o  o    . .X.XX.@+++$",
"+$$O@XX .  o   o   .  ..XX.@+++#",
"#++$@X.o. oo.oo X    .X.XXX@O$$O"
};
