/* XPM */
static char *_05661df4e2340d19e53d608db6ec42fGrf8XFhIAP2eHX5f[] = {
/* columns rows colors chars-per-pixel */
"32 32 68 1 ",
"  c #F5CF98",
". c #F6D098",
"X c #F5D099",
"o c #F4CF99",
"O c #F3CD95",
"+ c #F5CF96",
"@ c #F4CE97",
"# c #F3CE98",
"$ c #F4CE95",
"% c white",
"& c #F2CC95",
"* c #F0CB95",
"= c #DEDDDC",
"- c #F5D19B",
"; c #E8C693",
": c #D8C3A4",
"> c #FBFBFC",
", c #F5F6F6",
"< c #C1B4A1",
"1 c #D8C09F",
"2 c #F8F8F9",
"3 c #CEB48F",
"4 c #C5C4C3",
"5 c #E1C193",
"6 c #E3E1E1",
"7 c #D5D2CE",
"8 c #C1B19B",
"9 c #F7D199",
"0 c #FEFEFF",
"q c #F4D19B",
"w c #D2C6B5",
"e c #DBBD91",
"r c #D5C3AA",
"t c #EDECEA",
"y c #AFAAA4",
"u c #CCCAC8",
"i c #D6CAB9",
"p c #D7D6D7",
"a c #CDB798",
"s c #F4F4F4",
"d c #CBC0AF",
"f c #E8E6E5",
"g c #B5B1AD",
"h c #CFCECE",
"j c #D7C6AE",
"k c #EFEFEE",
"l c #DAD5CF",
"z c #D4BB97",
"x c #CCC4BA",
"c c #C2BEBA",
"v c #BCB7B2",
"b c #F7D29B",
"n c #EDC893",
"m c #DBD2C5",
"M c #DCD9D8",
"N c #D7CCBC",
"B c #BDAA90",
"V c #C9BAA4",
"C c #C6B091",
"Z c #D4CDC5",
"A c #D6B88C",
"S c #C9AD87",
"D c #F6D19B",
"F c #DACFC0",
"G c #9B9795",
"H c #B6A690",
"J c #AA987E",
"K c #ADA295",
/* pixels */
"XOooq##OOoX+$ooo##O$X-$+ooo##OoX",
"+O+$o&#&OoX$O#+#&$&@ XO$$oOOOO@+",
"+$++o&#&$@X$$++#&#O@@X$++o#OOO@o",
"X+XXX##OO 9++XXo##OOoX+..X##OO@o",
"X$X.X##$*55*+XXo#@$$o.*55*o##O+ ",
"+$X.oOo$CZlC&XX*;*$$X+C7M8*#@$oX",
".$.;:1;nH6fy59njmr;+-;y66ge #$ X",
".+;w66rAg%%c3ba=vcz$bAy%%cSX#$ -",
"..3y44ySw0%Z59Ju=uJObeyffgSX#@Xb",
".+SGppG3exuAO9HM%=K$-zgh7ga*o+*;",
"9+eyf6yBN44wCewug4xeec>hhku3X;<<",
"X+Ayh4Gy%>20hcyp4hg8dM0==s6xArl3",
".5v6=674%%%0dBG2%24vfh0==spf7f1&",
";ixf%%hg0%%>je4,%2K7pc>==sxwsrn ",
"1736%%i8>%%>Vi4k%sB=Vd0==smez; o",
"1we6%%ma,%%,uNCf>tCM1i0==sm;$$+X",
"1dAuffdas%%s<;zp=pBczV=uupd*@$ X",
"5<e6tklSv44v39:20>V85rs222w*#@ -",
"*51s%%fC=tt=e.1,h2rn#j0>>%i*#@ -",
".+1,%%f8stts1+1svsrOoj%67%N*@@oD",
"9$1,%%t8,7721.:svsjOoj%Mu%Fno@Xb",
"9$1s0%t827Z21+:sgsr&Oj%lx%Fn#$ X",
"X$zudx48>ZZ>:&:k<kr&&i%lx%F;O&@o",
"+$5=11l<>Ni>r&:k8kr&*i%md%m;OO@+",
".+5M1:7V0iw0jO:k8t:&*i%Fd%m;#O@o",
"X+;7::ZV>ww>jO:t8t:O*i>Nr2m;@O@o",
"+$;vza<Bp<8p<&ahHua$*<M<8pc;+O X",
"X+5<338Bw33wa&3<B83$*aia3wV;o$ X",
".$o*#***n#o*&X###*&$X#*O#**##@ -",
".$X+qo@#@XDX+.oq##$+-D+oXXq##$X-",
".$ooqo@@@XD $Xoqo#@+-D@@XXXo#@ D",
"9$-qqoo@@-b+$-qqoo@o-D@ -qqoo@Xb"
};
