/* XPM */
static char *_ec63958e51b424a8b32717a2c11d1e1uycbhFuLwpasQQxS[] = {
/* columns rows colors chars-per-pixel */
"32 32 163 2 ",
"   c #130E07",
".  c #140F08",
"X  c #16110A",
"o  c #1C130B",
"O  c #22160D",
"+  c #26180E",
"@  c #29190F",
"#  c #231B12",
"$  c #2C1C11",
"%  c #321E12",
"&  c #272116",
"*  c #2A251A",
"=  c #2F281E",
"-  c #352115",
";  c #3B2215",
":  c #362519",
">  c #3C2619",
",  c #3C291C",
"<  c #3B2B20",
"1  c #3B3326",
"2  c #422516",
"3  c #482615",
"4  c #4D2917",
"5  c #412619",
"6  c #442A1C",
"7  c #4C2B1A",
"8  c #522D1A",
"9  c #592F1A",
"0  c #56301D",
"q  c #5C321D",
"w  c #64361F",
"e  c #462F20",
"r  c #4A2F21",
"t  c #433223",
"y  c #4C3224",
"u  c #473826",
"i  c #44362A",
"p  c #463C2E",
"a  c #4A3A28",
"s  c #533423",
"d  c #593624",
"f  c #523628",
"g  c #553A2C",
"h  c #5A3C2C",
"j  c #633621",
"k  c #643A24",
"l  c #6C3B24",
"z  c #623D2B",
"x  c #693F29",
"c  c #733F26",
"v  c #57422F",
"b  c #5C412F",
"n  c #5F4332",
"m  c #5C4C37",
"M  c #5D4D3A",
"N  c #64412E",
"B  c #6C412B",
"V  c #774127",
"C  c #73422A",
"Z  c #7B452B",
"A  c #7E492F",
"S  c #644130",
"D  c #6A4532",
"F  c #6C4937",
"G  c #6C4D39",
"H  c #764730",
"J  c #734A34",
"K  c #7C4C34",
"L  c #744D39",
"P  c #66553E",
"I  c #6B533C",
"U  c #75503E",
"Y  c #7B523D",
"T  c #615240",
"R  c #755542",
"E  c #795340",
"W  c #745D43",
"Q  c #7E5E46",
"!  c #7C6447",
"~  c #76644B",
"^  c #834D33",
"/  c #825037",
"(  c #885036",
")  c #85543C",
"_  c #8B553A",
"`  c #8F583D",
"'  c #90573B",
"]  c #925A3E",
"[  c #825742",
"{  c #845943",
"}  c #8D5C45",
"|  c #845D48",
" . c #895F49",
".. c #945D42",
"X. c #84654D",
"o. c #8B634D",
"O. c #846C4E",
"+. c #946046",
"@. c #986043",
"#. c #94654D",
"$. c #9A654A",
"%. c #9C694E",
"&. c #8C6750",
"*. c #816D55",
"=. c #9A6C54",
"-. c #986E58",
";. c #8D7554",
":. c #88765D",
">. c #927857",
",. c #9C755E",
"<. c #947C5E",
"1. c #997E5C",
"2. c #A16C50",
"3. c #A5765B",
"4. c #A37C63",
"5. c #AA7E65",
"6. c #998162",
"7. c #9D8769",
"8. c #A48562",
"9. c #A98663",
"0. c #A88865",
"q. c #A2836D",
"w. c #AC876D",
"e. c #A58F6E",
"r. c #AC8F6A",
"t. c #B08D6C",
"y. c #AD926B",
"u. c #B8986E",
"i. c #AD8B71",
"p. c #A99071",
"a. c #BD9E75",
"s. c #BD987B",
"d. c #C19D76",
"f. c #C4A47A",
"g. c #CAAB7D",
"h. c #C7AB80",
"j. c #C9AB8F",
"k. c #D3AD80",
"l. c #CFB287",
"z. c #CCB088",
"x. c #D2B385",
"c. c #DCB483",
"v. c #D8B788",
"b. c #DBBA8A",
"n. c #CAB099",
"m. c #E1BE8D",
"M. c #E4C08D",
"N. c #E9C590",
"B. c #EECA95",
"V. c #EDCB9A",
"C. c #F4CE95",
"Z. c #F4CE96",
"A. c #F3CE99",
"S. c #F4CF98",
"D. c #F5D097",
"F. c #F4D099",
"G. c #F6D199",
"H. c #F6D29B",
"J. c #F7D49E",
"K. c #F8D39B",
"L. c #F8D39C",
"P. c #DDC6AC",
"I. c #E0C9AE",
/* pixels */
"G.C.S.S.G.A.A.Z.C.S.G.K.B.x.e.:.*.<.f.B.L.G.C.S.S.G.A.A.C.C.S.G.",
"G.C.C.C.S.C.Z.Z.C.G.B.y.M = o X . X & P f.A.C.C.C.S.C.C.C.C.S.S.",
"G.C.D.C.S.C.A.C.G.z.T # o o + @ O X X   # ~ v.G.C.G.A.C.C.C.C.S.",
"G.C.G.G.G.A.S.C.p.i @ $ % % - - % $ + o X . p h.G.G.S.A.A.C.S.G.",
"G.C.G.D.G.A.A.6.: % - ; 2 2 2 2 2 2 - $ O o   1 h.G.S.A.C.C.S.G.",
"G.C.G.G.G.G.a., - 2 2 4 8 8 8 4 4 8 3 ; $ O o . p v.G.A.S.C.S.G.",
"G.C.G.D.G.B.I % 2 4 8 0 k l l q q q 8 4 - @ O X . ~ A.S.S.C.S.G.",
"G.C.G.G.G.v.t 2 8 4 8 0 q w j w w 9 8 4 5 $ + O X * l.G.C.C.S.G.",
"G.C.G.C.J.f.> 4 8 8 0 l C c l l l w q 4 ; $ + O o X 7.L.S.C.G.G.",
"G.C.G.G.J.r.- 8 q w Z ` $.%._ Z V Z Z l 8 - @ O o   ~ G.S.S.G.G.",
"G.C.G.G.J.1.; 9 0 z J L | 4.3.@.' ..+.{ D s 2 + o   P S.S.C.G.G.",
"G.C.S.C.G.X.2 q k J o.{ { } =.$.` _ / N r 6 5 $ O . m C.C.C.S.G.",
"G.C.C.C.C.I 3 j C K { J C A ( ..K B l C B S y % O . m B.C.C.S.S.",
"G.C.D.D.C.I 4 k k 0 h g h z C l 8 3 s F h s 4 - $ X P A.C.C.C.S.",
"G.C.G.G.V.I 8 D N k Y L z q w 9 2 % > h t : + % % X ~ G.C.C.S.G.",
"G.C.G.C.8.g z J C l l C B w l w 4 - % 5 s y > : - O 1.K.C.C.S.G.",
"G.C.G.M.J 7 D ^ _ ] _ ^ K l ^ _ l 2 - 7 8 4 5 6 - + m g.G.C.S.G.",
"G.C.G.c.B s C ..5.3.] _ _ ^ ..2.( 0 0 7 C Z j 4 - @ o ! S.C.S.G.",
"G.C.G.k.z s l _ 3._ ^ ) B > 5 d 4 % 3 s K ] _ x > + @ W C.C.G.G.",
"G.C.G.d.d f j K L 6 y 5 5 y e - - O O > z K ) B 2 + - W C.S.G.G.",
"G.C.K.t.7 h N J y 6 d D U o.=.) L D e $ $ 6 D s - + $ *.G.S.G.G.",
"G.C.G.d.z D L [ N f h y &.4.s.w.,.R h r $ O y r - @ o O.G.S.S.G.",
"G.C.S.B.9.F E { F y z s i.j.P.I.n.q.R , 6 % y f > $ $ y.G.C.S.G.",
"G.C.C.G.b.L U E S h H C K  .-.,.o.F r - > - h f 6 < <.N.C.C.C.C.",
"G.C.G.G.B.Q z F h N J H ) -.#.} } L 7 ; > - f y 5 m V.S.C.C.S.S.",
"G.C.G.D.G.0.s N h h D J J D h f f s 6 > - - 6 6 - O.S.S.C.C.S.G.",
"G.C.G.D.G.m.G f g y N C _ +.J d f N s > % - > - y x.G.A.S.C.S.G.",
"G.C.G.D.G.G.f.n y 6 z B K ...._ K x s 5 $ % - - 1.G.S.S.S.C.S.G.",
"G.C.G.D.G.S.S.a.b - y J { =.#.} Y D y : + $ : O.N.G.G.S.C.S.S.G.",
"G.C.G.S.G.S.S.S.f.v - f U { E U D g : + O b u.C.G.G.G.S.A.C.G.G.",
"G.C.G.G.G.G.S.S.G.b.O., - 6 , 6 : $ # t >.M.G.S.G.G.G.S.S.S.G.G.",
"G.C.G.G.G.G.S.S.S.G.G.g.;.m u t a W y.b.G.L.C.G.G.G.G.S.S.S.G.G."
};
