/* XPM */
static char *_a8aaea5ee6f435ae3ea7a011fe1a0a8i7TKYsn6LyC7F2Cf[] = {
/* columns rows colors chars-per-pixel */
"32 32 26 1 ",
"  c #F9F9F9",
". c #5E3622",
"X c #724833",
"o c #392317",
"O c #1D130B",
"+ c #2E1C12",
"@ c #44281A",
"# c #FBFCFC",
"$ c gray97",
"% c #50301F",
"& c #83533B",
"* c #F3F3F2",
"= c #603F2E",
"- c #8F5F46",
"; c #6F3F27",
": c gray96",
"> c #5F564F",
", c #C7BEB6",
"< c #E8E6E5",
"1 c #766A62",
"2 c #483C34",
"3 c #D7D4D2",
"4 c #A09289",
"5 c #9E7159",
"6 c #B3ACA6",
"7 c #9A8171",
/* pixels */
"#::#*  *#::#* #:# $#*  *#::#*  *",
"*$$* :: *$ $ <3666,<# : *$$* ::#",
"#:: *$$*# <612+OOO+21,*$ :: *$$*",
"*$$: ::#<42OOOO+OOOOO+>,: $: :: ",
" :: :$ ,>++++oooo++OOOOO1<  :$$*",
":$$: $4o+ooo@@@@@@@o++OOO>3 $:: ",
" ::$ 6oo@@@%%..%%%%@@o+OOO23$$$:",
":$$$<2+@@@%...;...%%@@++OOO>*$:$",
"$::#,o@%%%%..;..;..%@o+++OOO,#$:",
"$::#4+%%%.;&-&X;;;;;.@++OOOO7#::",
":$$ 7o%..X&&-75-&&--&;%@+OOO1$:$",
"$:::>o%.=&&&--55-&-&X%@@o+OO>$$:",
":$ <2@.;X&-XXX&-&X;;;;=.o+OO>*: ",
" :$<2%.;.%=2==;;.@@.X.%%@++O> $*",
"*$#32%X;.;&X....@o+@=%@++++O1$: ",
"# 31%=XX;;;XX.;;.@o+@%%@oo+O4# *",
"*#6%%X&---&&X;&-&.o@%.%@@@+O24$#",
"##4%.X-57-&-&;X-&.%%%X&X.@o+O>**",
"*$7%..X5X=X.@++ooOOo%X&-&.oO+=<#",
"#*-%==X=o@%.X&-X..@++@.XX%+Oo>**",
"**-%XX&=%=.=--75-&X%@+O@=o+OO>:#",
" $,1X&&&@=%=46,,,45X@@+o=@o+O7 *",
"*$#,=&&X%X;;&-577-X%o@o%=%@@13$ ",
" :$<X=X=.XXX&5--&-=@o@+%2%o>* $*",
":$$:4%==%=XXXX=.%.%@oo+@@@+4#:: ",
"$:: <1%=%=;X&-&;.==%@++oo+><$$$:",
":$$:#31%@%=;&---&X.%@++o+23 $::$",
"$::$$#<7%+=X-5--&X=@oO+@13$$:$$:",
"$::$:$ $,>o@=X=X=%oOOo1,: :$:$$:",
":$$:$::$ <612@o+++o>43: :$$:$::$",
" ::$:$$:$$ $<3,66,3*  $:$::$:$$:",
"*$$* :: *$$*#$ # ##* :: *$$* ::#"
};
