/* XPM */
static char *_276b720ac7b4cbdc65a08cf0ce617acl10zgGyELrB8wN8O[] = {
/* columns rows colors chars-per-pixel */
"32 32 228 2 ",
"   c #3B220D",
".  c #382615",
"X  c #442303",
"o  c #562B00",
"O  c #5D3007",
"+  c #422E1A",
"@  c #48321E",
"#  c #643402",
"$  c #6C3A03",
"%  c #693806",
"&  c #673E19",
"*  c #453324",
"=  c #4A3624",
"-  c #44362B",
";  c #4A3A29",
":  c #4D3C2B",
">  c #533A24",
",  c #523D2B",
"<  c #5A3F28",
"1  c #563F37",
"2  c #6F431E",
"3  c #76471B",
"4  c #55432E",
"5  c #5B432E",
"6  c #5D4531",
"7  c #594A36",
"8  c #5E523F",
"9  c #67482B",
"0  c #654A2E",
"q  c #734B28",
"w  c #71512D",
"e  c #7E532C",
"r  c #604732",
"t  c #654B33",
"y  c #6A4D35",
"u  c #624B3D",
"i  c #704F3D",
"p  c #685137",
"a  c #6F523A",
"s  c #6D5B3E",
"d  c #74553A",
"f  c #7B573A",
"g  c #725D3E",
"h  c #7B593C",
"j  c #5A4E48",
"k  c #4E544A",
"l  c #545348",
"z  c #694D47",
"x  c #6B4E4A",
"c  c #625342",
"v  c #695848",
"b  c #745545",
"n  c #735E42",
"m  c #7A5D43",
"M  c #785846",
"N  c #73544D",
"B  c #78584B",
"V  c #684C53",
"C  c #6A4E5E",
"Z  c #685651",
"A  c #7B5A54",
"S  c #785857",
"D  c #736142",
"F  c #7C6448",
"G  c #626658",
"H  c #786A54",
"J  c #6B7958",
"K  c #797756",
"L  c #6E5061",
"P  c #765668",
"I  c #5B7267",
"U  c #7A6662",
"Y  c #72796D",
"T  c #82552C",
"R  c #8A5A29",
"E  c #925B2E",
"W  c #865A35",
"Q  c #99612A",
"!  c #8D633E",
"~  c #82683C",
"^  c #946435",
"/  c #95673B",
"(  c #A96B39",
")  c #B06B33",
"_  c #B97337",
"`  c #C37739",
"'  c #835E41",
"]  c #825F4B",
"[  c #825E57",
"{  c #846142",
"}  c #8C6544",
"|  c #856D46",
" . c #8D6A45",
".. c #89684A",
"X. c #936A44",
"o. c #986C46",
"O. c #936C49",
"+. c #8A744A",
"@. c #96744B",
"#. c #9A734D",
"$. c #856958",
"%. c #916F59",
"&. c #88745B",
"*. c #8A745C",
"=. c #9D7653",
"-. c #9C7E53",
";. c #997758",
":. c #A26E42",
">. c #A87647",
",. c #B47A48",
"<. c #A67B55",
"1. c #A67B57",
"2. c #847865",
"3. c #8C7B64",
"4. c #8E716A",
"5. c #8B7C6C",
"6. c #9A7866",
"7. c #917876",
"8. c #A57E66",
"9. c #65855E",
"0. c #6C8862",
"q. c #7A946A",
"w. c #778679",
"e. c #9B8158",
"r. c #AD814B",
"t. c #B5854B",
"y. c #A48357",
"u. c #AC8355",
"i. c #AD855B",
"p. c #B68858",
"a. c #BB935E",
"s. c #978A65",
"d. c #95826B",
"f. c #848C7F",
"g. c #9D8C78",
"h. c #8C9873",
"j. c #AB8562",
"k. c #A88766",
"l. c #B48B64",
"z. c #B68D65",
"x. c #BE9D62",
"c. c #BB9268",
"v. c #BB946B",
"b. c #AE8E70",
"n. c #A3907B",
"m. c #AC9579",
"M. c #BA9673",
"N. c #BD9A75",
"B. c #B99B7B",
"V. c #CE8140",
"C. c #C8965D",
"Z. c #D79858",
"A. c #DBA45D",
"S. c #DFA95F",
"D. c #C08D62",
"F. c #C49866",
"G. c #D79C66",
"H. c #C29B73",
"J. c #C19E78",
"K. c #C7A668",
"L. c #D6A566",
"P. c #D3B16B",
"I. c #CBA475",
"U. c #CBA778",
"Y. c #D6B277",
"T. c #E1AA6C",
"R. c #E3AE72",
"E. c #E4B372",
"W. c #E6B778",
"Q. c #E6BB7A",
"!. c #EDC377",
"~. c #EBC57B",
"^. c #F6CB7D",
"/. c #7F9183",
"(. c #5CAD81",
"). c #61B487",
"_. c #69C293",
"`. c #889184",
"'. c #A99986",
"]. c #AB9E8A",
"[. c #B49D86",
"{. c #B19E8A",
"}. c #88A786",
"|. c #AEA38F",
" X c #B4A28D",
".X c #BCA68A",
"XX c #AFA591",
"oX c #B7A591",
"OX c #B9A691",
"+X c #B3AB97",
"@X c #BDAA95",
"#X c #BDAC98",
"$X c #BEB49E",
"%X c #C4A282",
"&X c #C9A583",
"*X c #CDA985",
"=X c #C3A88C",
"-X c #D2AB87",
";X c #C2AD92",
":X c #C2AE99",
">X c #CBB494",
",X c #C4B29C",
"<X c #CAB59B",
"1X c #D6BB98",
"2X c #E7B886",
"3X c #C9B7A1",
"4X c #CDBAA3",
"5X c #D3BEA5",
"6X c #D3BFA8",
"7X c #F1CC82",
"8X c #F9CE8C",
"9X c #FBD58D",
"0X c #FBD898",
"qX c #FDDB9D",
"wX c #DAC3A7",
"eX c #DAC5AC",
"rX c #DEC8AF",
"tX c #DDCBB5",
"yX c #E9CBA3",
"uX c #EDD1A9",
"iX c #FCDBA3",
"pX c #F5D7AC",
"aX c #E4CCB2",
"sX c #E4D3BD",
"dX c #E6DCC4",
"fX c #EBDEC5",
"gX c #F0DFC7",
"hX c #F2E0C7",
/* pixels */
"aXc.W.eXrXwXz.>.U.-X&Xp.A.-XaXeXH.L.yXeXeX*XL.wXaXeX&X>.*XaX&Xi.",
",Xz.Y.OX4XOXj.<.OX5X Xv.Y.@X5X Xv.L.@X<XoXN.<. X5XoXM.<.oX5X XM.",
"F #.-.g.4XH O.} 5.6X2.O.-.5.wX&.O.u.*.4Xd...O.3.eX5...X.2.eX3...",
"+ } 9 v : . } h 2.H 4 O.{ 2.H 4 O.f . * . f ' c 8 . W } U 2.J  .",
"3 ! O % $ $ / Z.~.7X~.a.p.!.~.~.a.& O $ $ R e % $ $ W p.!.7X7XF.",
"=.W W M.N.N.p.E.uXuXuXH.T.yXuXuXc.q z.N.N.l.W M.J.N.z.G.yXuXuXI.",
"b.W #.oX,X,Xv.E.@X3XOXH.E.;X3X#XM.e  X,X#X%XX.@X4X#X&XG.@X3X@XU.",
"F #. .'.tXn.<.u.n.sXg.=.L.1XsX[.<.! d.tX X<.} g.sX'.e.u.n.sXn.;.",
", e.p - j - 5 5 - Z - 6 t 7 G ; 5 6 - j - 5 5 - Z c @.6 - Z - 5 ",
"O.-.4 A P $.t r A P [ d , q._.q.f , A P A ' = A P 4.| 5 A P A { ",
"h | : u U %.y t r 6 d h , c h.e.h 5 t 1 6 ' = a 6.;.g t h i } O.",
"| t 0 ~ +.+.0   X $ # > 0  .Q.K.p 0 ~ | | g > E V.) 9 w _ ` ` W ",
"7Xp.L.9XqX9Xu.% R >.Q ^ A.8XqX9XF.Z.8XqX0XK.( Z.T.Z.,.>.G.T.Z.,.",
"1Xa.Q.,X4X>Xi.T B.5XB.p.W.<X5X>XF.L.1X4X>XI.,.%XwX=XF.i.<X5X%XF.",
"{.i.U.oXwX'.=.e {.rX Xl.U. XrX{.j.L. X6X5X*X#.{.rX Xk.C.5XeX Xk.",
"$.-.y.d.>X&.#.! *.<X&.#.y.*.<X&.#.i.&.;Xm.z.@.&.<X3.@.a.b.<X3.@.",
"| y.F s n s D D s n s n g s D s n g s n s g n s n | e.D s n s D ",
"{ -.4 V L B 6 4 N L N y = 0.).0.y ; N L A d * x L $.| 4 N L N d ",
"O.-.6 A 7.8.h d b z ] } r K }.s.O.t M x b #.5 b 4.6.| a M x ..<.",
"> 6 * @ 7 t , , = = < 5 * > u t 5 = 5 4 4 y * 4 v n 7 = + . @ r ",
"% W & # # $ W ^ ) ` ` :.! ) ` _ :.t.T.~.~.x.t.S.~.~.a.2 # # # e ",
"#.T W v.M.^ ^ ( G.G.G.,.( G.2X2Xz.A.0XiX0XP.A.^.qXiXI.3 / N.:.^ ",
"b.T #.{.#Xw ^ u.[.=X[.c.u.[.,XOXH.L.;X@X X*XE..X<XoX&X>.m.<X[.N.",
"3.W } $XdX&.! #.XXfX|.=.#.+XfX].=.F. XdX+X;.u.|.fX+X;.O.].fXXX;.",
"7 O.d G Y l O.h w.f.l } { /.f.l } { l Y k h { w.`.k { { w.`.I { ",
"& #.r.a.x.x.u.r.P.K.x.u.r.Y.K.K.u.9 X o o T } o.( Q :.>.P.U.U.i.",
"X.o.E.pXiX0Xc.T.iXiXqXF.T.pXiXqXz.2 #.u.u.<.o.G.R.R.D.C.8XiXqXI.",
"B./ 2X@X,X,Xv.E.;X,X@XH.Q.#X3X:Xv.e .X:X#X&X<.@X3X@X&XL.;X<X#X&X",
"d.o.v.3XgXoXi.a.#XgX@Xj.v.#XhX@X<.! {.fX3Xk.=.@XhX,Xk.p.@XhX@Xj.",
"8 e.{ v 2.c F m c 5.c m m v 5.c m F c 2.v m m c 5.H -.m c 5.c n ",
"m -.: V L N 5 , x C x t * 9.(.J t = x C N a * z C $.| , x C x d ",
"@.e.6 A 7.8.h d B x .. .r K }.s.O.t m N B #.5 B 7.6.| d M 3.h.6."
};
