/* XPM */
static char *Wood_Pattern_21701939834[] = {
/* columns rows colors chars-per-pixel */
"32 32 2 1 ",
"  c #F5CF97",
". c #F6D19A",
/* pixels */
"   .   .   .   .   ..  .   ..  .",
"   .       .       .       .    ",
"                                ",
"   .  ..   .       .       .  ..",
"      .       ..      ..      ..",
"   .  ..   .  ..   .  ..   .  ..",
"   .   .   .   .   .   .   .   .",
"   .  ..   .  ..   .  ..   .  ..",
"   ..  .   ..  .   ..  .   .. ..",
"   .  ..   .  ..   .. ..   ..  .",
"   .. ..   .. ..   .. ..   .. ..",
"   .       .       .       .   .",
"                                ",
"   .               .           .",
"      ..      ..      ..      ..",
"   .  .    .  .    .  .    .  ..",
"   .  ..   .  ..   .  ..   .   .",
"   .   .   .  .    .  ..   .  ..",
"   .  ..   .  ..   .  ..   .  ..",
"   .   .   ..  .   ..  .   ..  .",
"   .  ..   .  ..   .. ..   .  ..",
"   .. ..   .. ..   .. ..   .. ..",
"   .       .       .       .    ",
"                                ",
"                               .",
"   .  .    .  .    .  .    .  ..",
"      ..      ..      ..      ..",
"   .   .   .   .   .   .   .   .",
"   .  ..   .  ..   .  ..   .  ..",
"   .  ..   ..  .   .   .   .  ..",
"   .   .   ..  .   ..  .   ..  .",
".  .  ...  .  ...  .. ...  .. .."
};
